<svg width="16" height="16" viewBox="0 0 16 16" fill="none" xmlns="http://www.w3.org/2000/svg">
<path d="M13 6.5C13 10.0899 10.0899 13 6.5 13C2.91015 13 0 10.0899 0 6.5C0 2.91015 2.91015 0 6.5 0C10.0899 0 13 2.91015 13 6.5ZM2.14114 6.5C2.14114 8.90733 4.09267 10.8589 6.5 10.8589C8.90733 10.8589 10.8589 8.90733 10.8589 6.5C10.8589 4.09267 8.90733 2.14114 6.5 2.14114C4.09267 2.14114 2.14114 4.09267 2.14114 6.5Z" fill="#acb1b4"/>
<path d="M14.2929 15.7071C14.6834 16.0976 15.3166 16.0976 15.7071 15.7071C16.0976 15.3166 16.0976 14.6834 15.7071 14.2929L14.2929 15.7071ZM10.2929 11.7071L14.2929 15.7071L15.7071 14.2929L11.7071 10.2929L10.2929 11.7071Z" fill="#acb1b4"/>
</svg>
